<mxfile host="app.diagrams.net" modified="2021-11-02T09:35:27.565Z" agent="5.0 (Macintosh; Intel Mac OS X 10_15_7) AppleWebKit/537.36 (KHTML, like Gecko) Chrome/95.0.4638.69 Safari/537.36" etag="5h6vZVHf135CGjUywlla" version="15.6.5" type="github">
  <diagram id="cEOK3jMGZeHYLs-aAo8m" name="第 1 页">
    <mxGraphModel dx="1186" dy="694" grid="1" gridSize="10" guides="1" tooltips="1" connect="1" arrows="1" fold="1" page="1" pageScale="1" pageWidth="827" pageHeight="1169" math="0" shadow="0">
      <root>
        <mxCell id="0" />
        <mxCell id="1" parent="0" />
        <mxCell id="fW5pa93kXFS0rrpcE8qi-2" value="&lt;font style=&quot;font-size: 14px&quot;&gt;socket1&lt;/font&gt;" style="ellipse;whiteSpace=wrap;html=1;strokeColor=#b85450;fillColor=#f8cecc;fontColor=default;" parent="1" vertex="1">
          <mxGeometry x="210" y="160" width="60" height="60" as="geometry" />
        </mxCell>
        <mxCell id="fW5pa93kXFS0rrpcE8qi-3" value="&lt;font style=&quot;font-size: 14px&quot;&gt;socket1&lt;/font&gt;" style="ellipse;whiteSpace=wrap;html=1;strokeColor=#b85450;fillColor=#f8cecc;fontColor=default;" parent="1" vertex="1">
          <mxGeometry x="210" y="160" width="60" height="60" as="geometry" />
        </mxCell>
        <mxCell id="fW5pa93kXFS0rrpcE8qi-4" value="&lt;font style=&quot;font-size: 14px&quot;&gt;socket3&lt;/font&gt;" style="ellipse;whiteSpace=wrap;html=1;strokeColor=#b85450;fillColor=#f8cecc;fontColor=default;" parent="1" vertex="1">
          <mxGeometry x="370" y="160" width="60" height="60" as="geometry" />
        </mxCell>
        <mxCell id="fW5pa93kXFS0rrpcE8qi-5" value="&lt;font style=&quot;font-size: 14px&quot;&gt;socket2&lt;/font&gt;" style="ellipse;whiteSpace=wrap;html=1;strokeColor=#b85450;fillColor=#f8cecc;fontColor=default;" parent="1" vertex="1">
          <mxGeometry x="290" y="160" width="60" height="60" as="geometry" />
        </mxCell>
        <mxCell id="fW5pa93kXFS0rrpcE8qi-6" value="&lt;font style=&quot;font-size: 14px&quot;&gt;socket4&lt;/font&gt;" style="ellipse;whiteSpace=wrap;html=1;strokeColor=#b85450;fillColor=#f8cecc;fontColor=default;" parent="1" vertex="1">
          <mxGeometry x="444" y="160" width="60" height="60" as="geometry" />
        </mxCell>
        <mxCell id="fW5pa93kXFS0rrpcE8qi-7" value="&lt;font style=&quot;font-size: 14px&quot;&gt;socket5&lt;/font&gt;" style="ellipse;whiteSpace=wrap;html=1;strokeColor=#b85450;fillColor=#f8cecc;fontColor=default;" parent="1" vertex="1">
          <mxGeometry x="520" y="160" width="60" height="60" as="geometry" />
        </mxCell>
        <mxCell id="fW5pa93kXFS0rrpcE8qi-13" style="edgeStyle=orthogonalEdgeStyle;rounded=0;orthogonalLoop=1;jettySize=auto;html=1;exitX=0.1;exitY=0.5;exitDx=0;exitDy=0;exitPerimeter=0;fontSize=18;fontColor=default;strokeWidth=3;strokeColor=default;labelBackgroundColor=default;" parent="1" source="fW5pa93kXFS0rrpcE8qi-9" edge="1">
          <mxGeometry relative="1" as="geometry">
            <mxPoint x="400" y="340" as="targetPoint" />
          </mxGeometry>
        </mxCell>
        <mxCell id="fW5pa93kXFS0rrpcE8qi-9" value="" style="shape=curlyBracket;whiteSpace=wrap;html=1;rounded=1;fontSize=14;fontColor=default;strokeColor=default;fillColor=default;rotation=-90;strokeWidth=2;" parent="1" vertex="1">
          <mxGeometry x="385" y="95" width="30" height="320" as="geometry" />
        </mxCell>
        <mxCell id="fW5pa93kXFS0rrpcE8qi-16" style="edgeStyle=orthogonalEdgeStyle;rounded=0;orthogonalLoop=1;jettySize=auto;html=1;exitX=0.5;exitY=1;exitDx=0;exitDy=0;labelBackgroundColor=default;fontSize=18;fontColor=default;strokeColor=default;strokeWidth=3;" parent="1" source="fW5pa93kXFS0rrpcE8qi-10" target="fW5pa93kXFS0rrpcE8qi-14" edge="1">
          <mxGeometry relative="1" as="geometry" />
        </mxCell>
        <mxCell id="fW5pa93kXFS0rrpcE8qi-17" style="edgeStyle=orthogonalEdgeStyle;rounded=0;orthogonalLoop=1;jettySize=auto;html=1;exitX=0.5;exitY=1;exitDx=0;exitDy=0;entryX=0.5;entryY=0;entryDx=0;entryDy=0;labelBackgroundColor=default;fontSize=18;fontColor=default;strokeColor=default;strokeWidth=3;" parent="1" source="fW5pa93kXFS0rrpcE8qi-10" target="fW5pa93kXFS0rrpcE8qi-15" edge="1">
          <mxGeometry relative="1" as="geometry" />
        </mxCell>
        <mxCell id="fW5pa93kXFS0rrpcE8qi-10" value="" style="rounded=1;whiteSpace=wrap;html=1;fontSize=14;strokeColor=#36393d;strokeWidth=2;fillColor=#cce5ff;fontColor=default;" parent="1" vertex="1">
          <mxGeometry x="299" y="350" width="205" height="140" as="geometry" />
        </mxCell>
        <mxCell id="fW5pa93kXFS0rrpcE8qi-11" value="&lt;font style=&quot;font-size: 18px&quot;&gt;io多路复用器&lt;/font&gt;" style="rounded=1;whiteSpace=wrap;html=1;fontSize=14;strokeColor=#82b366;strokeWidth=2;fillColor=#d5e8d4;fontColor=default;dashed=1;" parent="1" vertex="1">
          <mxGeometry x="310" y="360" width="180" height="60" as="geometry" />
        </mxCell>
        <mxCell id="fW5pa93kXFS0rrpcE8qi-12" value="&lt;font style=&quot;font-size: 18px&quot;&gt;文件事件派发器&lt;/font&gt;" style="rounded=1;whiteSpace=wrap;html=1;fontSize=14;strokeColor=#9673a6;strokeWidth=2;fillColor=#e1d5e7;fontColor=default;dashed=1;" parent="1" vertex="1">
          <mxGeometry x="311.5" y="424" width="180" height="60" as="geometry" />
        </mxCell>
        <mxCell id="fW5pa93kXFS0rrpcE8qi-14" value="acceptor" style="rounded=1;whiteSpace=wrap;html=1;fontSize=18;strokeColor=#36393d;strokeWidth=2;fillColor=#cdeb8b;fontColor=default;" parent="1" vertex="1">
          <mxGeometry x="155" y="585" width="170" height="60" as="geometry" />
        </mxCell>
        <mxCell id="fW5pa93kXFS0rrpcE8qi-15" value="handler" style="rounded=1;whiteSpace=wrap;html=1;fontSize=18;strokeColor=#36393d;strokeWidth=2;fillColor=#ffcc99;fontColor=default;" parent="1" vertex="1">
          <mxGeometry x="490" y="585" width="170" height="60" as="geometry" />
        </mxCell>
        <mxCell id="fW5pa93kXFS0rrpcE8qi-18" value="系统调用io操作事件" style="text;html=1;align=center;verticalAlign=middle;resizable=0;points=[];autosize=1;strokeColor=none;fillColor=none;fontSize=18;fontColor=default;" parent="1" vertex="1">
          <mxGeometry x="491.5" y="675" width="170" height="30" as="geometry" />
        </mxCell>
        <mxCell id="fW5pa93kXFS0rrpcE8qi-19" value="负责和客户端建立连接&lt;br&gt;业务处理" style="text;html=1;align=center;verticalAlign=middle;resizable=0;points=[];autosize=1;strokeColor=none;fillColor=none;fontSize=18;fontColor=default;" parent="1" vertex="1">
          <mxGeometry x="130" y="660" width="200" height="50" as="geometry" />
        </mxCell>
      </root>
    </mxGraphModel>
  </diagram>
</mxfile>
